<svg width="311" height="354" viewBox="0 0 311 354" fill="none" xmlns="http://www.w3.org/2000/svg">
    <path d="M0.6875 97.0199V117.944C12.924 117.944 23.4167 126.673 25.6354 138.698L65.2038 353.155H130.893L154.997 260.022C156.209 255.34 162.86 255.333 164.081 260.013L188.371 353.155H248.196L287.667 135.433C289.604 124.748 298.913 116.979 309.779 116.979V97.0198L235.294 97.0195V116.979C247.553 116.979 256.858 128.011 254.783 140.085L231.13 277.728C230.287 282.637 223.379 283.02 221.998 278.234L182.606 141.771C181.158 136.753 176.562 133.298 171.335 133.298H169.907C164.551 133.298 159.875 136.924 158.545 142.109L123.91 277.093C122.659 281.968 115.646 281.717 114.748 276.765L89.4981 137.537C87.5372 126.724 95.8509 116.775 106.847 116.775V97.0195L0.6875 97.0199Z" fill="#222222"/>
    <path fill-rule="evenodd" clip-rule="evenodd" d="M183.354 64.7514C186.382 69.1817 191.667 70.8339 198.824 71.055C199.396 71.076 199.982 71.0861 200.581 71.0861C201.171 71.0861 201.752 71.0763 202.322 71.0558C209.555 70.8382 215.317 69.1875 219.608 64.7514C225.548 58.6096 228.445 45.6653 229.871 35.6061C231.301 25.5182 231.325 12.9818 227.704 7.63846C224.084 2.29516 218.624 0.837891 210.541 0.837891C202.459 0.837891 196.585 2.29516 191.45 7.63846C186.315 12.9818 182.784 25.5182 181.354 35.6061C179.928 45.6653 179.155 58.6096 183.354 64.7514ZM201.739 62.932C202.844 62.932 203.848 62.85 204.773 62.6878C206.907 62.2351 208.581 61.2634 210.115 59.801C214.464 55.6542 216.872 45.0122 218.177 35.8064C219.494 26.5152 220.04 16.3193 216.867 12.1724C214.884 9.58149 213.438 8.99171 209.383 8.99171C205.329 8.99171 203.715 9.58149 200.998 12.1724C196.649 16.3193 194.304 26.5152 192.986 35.8064C191.681 45.0122 191.073 55.6542 194.246 59.801C195.361 61.2585 196.754 62.2285 198.749 62.6832C199.634 62.8485 200.623 62.932 201.739 62.932Z" fill="#222222"/>
    <path d="M233.821 70.601L243.655 1.22992L256.527 1.23056L246.693 70.6023L233.821 70.601Z" fill="#222222"/>
    <path fill-rule="evenodd" clip-rule="evenodd" d="M297.883 9.98314C298.113 8.36405 296.959 7.05126 295.305 7.05126H293.658L294.483 1.22992H310.988L301.155 70.5978H294.271L290.694 64.1385C290.694 64.1385 288.267 66.3578 286.35 67.5148C282.841 69.6323 280.108 71.0861 273.676 71.0861C267.243 71.0861 262.855 68.9113 260.511 64.5617C258.2 60.1842 257.615 53.9666 258.758 45.9087C259.908 37.7951 262.255 31.5774 265.8 27.2557C269.372 22.934 274.375 20.7732 280.808 20.7732C286.501 20.7732 291.19 22.1254 294.877 24.83C295.159 25.0349 295.428 25.2413 295.686 25.4492L297.883 9.98314ZM293.988 37.4273C294.204 35.9027 293.503 32.9153 291.539 30.9078C289.579 28.8725 287.048 27.8548 283.945 27.8548C280.615 27.8548 277.845 29.0258 275.634 31.3679C273.428 33.6821 271.71 39.1752 270.749 45.9505C269.789 52.7258 269.947 58.2329 271.494 60.575C273.044 62.8892 275.485 64.0463 278.815 64.0463C281.917 64.0463 284.825 62.4103 287.358 60.4028C289.895 58.3674 291.381 55.8182 291.583 54.3901L293.988 37.4273Z" fill="#222222"/>
</svg>


