<svg width="315" height="261" viewBox="0 0 315 261" fill="none" xmlns="http://www.w3.org/2000/svg">
    <path d="M0 0.000384096V21.29C12.45 21.29 23.1257 30.1711 25.3832 42.4061L65.642 260.605H132.477L157.002 165.846C158.235 161.082 165.002 161.076 166.244 165.837L190.959 260.605H251.827L291.986 39.0837C293.957 28.2127 303.429 20.3081 314.485 20.3081V0.00028167L238.699 0V20.3081C251.172 20.3081 260.64 31.5325 258.529 43.817L234.463 183.862C233.605 188.856 226.577 189.245 225.171 184.377L185.093 45.5326C183.619 40.427 178.943 36.9116 173.625 36.9116H172.172C166.723 36.9116 161.965 40.6006 160.611 45.8759L125.372 183.215C124.099 188.176 116.964 187.92 116.05 182.881L90.3601 41.224C88.365 30.2227 96.8238 20.1004 108.012 20.1004V0L0 0.000384096Z"
          fill="#222222"/>
</svg>

