<svg width="540" height="540" viewBox="0 0 540 540" fill="none" xmlns="http://www.w3.org/2000/svg">
    <rect width="540" height="540" rx="270" fill="#222222"/>
    <path d="M109.688 175.02V195.944C121.924 195.944 132.417 204.673 134.635 216.698L174.204 431.155H239.893L263.997 338.022C265.209 333.34 271.86 333.333 273.081 338.013L297.371 431.155H357.196L396.667 213.433C398.604 202.748 407.913 194.979 418.779 194.979V175.02L344.294 175.02V194.979C356.553 194.979 365.858 206.011 363.783 218.085L340.13 355.728C339.287 360.637 332.379 361.02 330.998 356.234L291.606 219.771C290.158 214.753 285.562 211.298 280.335 211.298H278.907C273.551 211.298 268.875 214.924 267.545 220.109L232.91 355.093C231.659 359.968 224.646 359.717 223.748 354.765L198.498 215.537C196.537 204.724 204.851 194.775 215.847 194.775V175.02L109.688 175.02Z" fill="white"/>
    <path fill-rule="evenodd" clip-rule="evenodd" d="M292.354 142.751C295.382 147.182 300.667 148.834 307.824 149.055C308.396 149.076 308.982 149.086 309.581 149.086C310.171 149.086 310.752 149.076 311.322 149.056C318.555 148.838 324.317 147.188 328.608 142.751C334.548 136.61 337.445 123.665 338.871 113.606C340.301 103.518 340.325 90.9818 336.704 85.6385C333.084 80.2952 327.624 78.8379 319.541 78.8379C311.459 78.8379 305.585 80.2952 300.45 85.6385C295.315 90.9818 291.784 103.518 290.354 113.606C288.928 123.665 288.155 136.61 292.354 142.751ZM310.739 140.932C311.844 140.932 312.848 140.85 313.773 140.688C315.907 140.235 317.581 139.263 319.115 137.801C323.464 133.654 325.872 123.012 327.177 113.806C328.494 104.515 329.04 94.3193 325.867 90.1724C323.884 87.5815 322.438 86.9917 318.383 86.9917C314.329 86.9917 312.715 87.5815 309.998 90.1724C305.649 94.3193 303.304 104.515 301.986 113.806C300.681 123.012 300.073 133.654 303.246 137.801C304.361 139.258 305.754 140.229 307.749 140.683C308.634 140.849 309.623 140.932 310.739 140.932Z" fill="white"/>
    <path d="M342.821 148.601L352.655 79.2299L365.527 79.2306L355.693 148.602L342.821 148.601Z" fill="white"/>
    <path fill-rule="evenodd" clip-rule="evenodd" d="M406.883 87.9831C407.113 86.364 405.959 85.0513 404.305 85.0513H402.658L403.483 79.2299H419.988L410.155 148.598H403.271L399.694 142.139C399.694 142.139 397.267 144.358 395.35 145.515C391.841 147.632 389.108 149.086 382.676 149.086C376.243 149.086 371.855 146.911 369.511 142.562C367.2 138.184 366.615 131.967 367.758 123.909C368.908 115.795 371.255 109.577 374.8 105.256C378.372 100.934 383.375 98.7732 389.808 98.7732C395.501 98.7732 400.19 100.125 403.877 102.83C404.159 103.035 404.428 103.241 404.686 103.449L406.883 87.9831ZM402.988 115.427C403.204 113.903 402.503 110.915 400.539 108.908C398.579 106.872 396.048 105.855 392.945 105.855C389.615 105.855 386.845 107.026 384.634 109.368C382.428 111.682 380.71 117.175 379.749 123.951C378.789 130.726 378.947 136.233 380.494 138.575C382.044 140.889 384.485 142.046 387.815 142.046C390.917 142.046 393.825 140.41 396.358 138.403C398.895 136.367 400.381 133.818 400.583 132.39L402.988 115.427Z" fill="white"/>
</svg>



