<svg width="172" height="173" viewBox="0 0 172 173" fill="none" xmlns="http://www.w3.org/2000/svg">
    <path fill-rule="evenodd" clip-rule="evenodd" d="M0 73.2172V77.9012C0 79.2582 1.1001 80.3583 2.45714 80.3583H7.14115V77.9012H2.45714L2.45714 73.2172H0ZM0 63.8492H2.45714V54.4811H0V63.8492ZM0 45.1131H2.45714V35.7451H0V45.1131ZM0 26.3771H2.45714V17.0091H0V26.3771ZM0 7.64114H2.45714V2.95714L7.14114 2.95714V0.5H2.45714C1.1001 0.5 0 1.6001 0 2.95714V7.64114ZM16.5091 0.5V2.95714H25.8771V0.5H16.5091ZM35.2451 0.5V2.95714H44.6132V0.5H35.2451ZM53.9812 0.5V2.95714H63.3492V0.5H53.9812ZM72.7172 0.5V2.95714H77.4012V7.64114H79.8583V2.95714C79.8583 1.6001 78.7582 0.5 77.4012 0.5H72.7172ZM79.8583 17.0091H77.4012V26.3771H79.8583V17.0091ZM79.8583 35.7451H77.4012V45.1132H79.8583V35.7451ZM79.8583 54.4812H77.4012V63.8492H79.8583V54.4812ZM79.8583 73.2172H77.4012V77.9012H72.7172V80.3583H77.4012C78.7582 80.3583 79.8583 79.2582 79.8583 77.9012V73.2172ZM63.3492 80.3583V77.9012H53.9812V80.3583H63.3492ZM44.6132 80.3583V77.9012H35.2452V80.3583H44.6132ZM25.8772 80.3583V77.9012H16.5091V80.3583H25.8772Z" fill="#222222"/>
    <path fill-rule="evenodd" clip-rule="evenodd" d="M92.1426 73.2172V77.9012C92.1426 79.2582 93.2427 80.3583 94.5997 80.3583H99.2837V77.9012H94.5997L94.5997 73.2172H92.1426ZM92.1426 63.8492H94.5997V54.4811H92.1426V63.8492ZM92.1426 45.1131H94.5997V35.7451H92.1426V45.1131ZM92.1426 26.3771H94.5997V17.0091H92.1426V26.3771ZM92.1426 7.64114H94.5997V2.95714L99.2837 2.95714V0.5H94.5997C93.2427 0.5 92.1426 1.6001 92.1426 2.95714V7.64114ZM108.652 0.5V2.95714H118.02V0.5H108.652ZM127.388 0.5V2.95714H136.756V0.5H127.388ZM146.124 0.5V2.95714H155.492V0.5H146.124ZM164.86 0.5V2.95714H169.544V7.64114H172.001V2.95714C172.001 1.6001 170.901 0.5 169.544 0.5H164.86ZM172.001 17.0091H169.544V26.3771H172.001V17.0091ZM172.001 35.7451H169.544V45.1132H172.001V35.7451ZM172.001 54.4812H169.544V63.8492H172.001V54.4812ZM172.001 73.2172H169.544V77.9012H164.86V80.3583H169.544C170.901 80.3583 172.001 79.2582 172.001 77.9012V73.2172ZM155.492 80.3583V77.9012H146.124V80.3583H155.492ZM136.756 80.3583V77.9012H127.388V80.3583H136.756ZM118.02 80.3583V77.9012H108.652V80.3583H118.02Z" fill="#222222"/>
    <path fill-rule="evenodd" clip-rule="evenodd" d="M0 165.36V170.044C0 171.401 1.1001 172.501 2.45714 172.501H7.14115V170.044H2.45714L2.45714 165.36H0ZM0 155.992H2.45714V146.624H0V155.992ZM0 137.256H2.45714V127.888H0V137.256ZM0 118.52H2.45714V109.152H0V118.52ZM0 99.7837H2.45714V95.0997L7.14114 95.0997V92.6426H2.45714C1.1001 92.6426 0 93.7427 0 95.0997V99.7837ZM16.5091 92.6426V95.0997H25.8771V92.6426H16.5091ZM35.2451 92.6426V95.0997H44.6132V92.6426H35.2451ZM53.9812 92.6426V95.0997H63.3492V92.6426H53.9812ZM72.7172 92.6426V95.0997H77.4012V99.7837H79.8583V95.0997C79.8583 93.7427 78.7582 92.6426 77.4012 92.6426H72.7172ZM79.8583 109.152H77.4012V118.52H79.8583V109.152ZM79.8583 127.888H77.4012V137.256H79.8583V127.888ZM79.8583 146.624H77.4012V155.992H79.8583V146.624ZM79.8583 165.36H77.4012V170.044H72.7172V172.501H77.4012C78.7582 172.501 79.8583 171.401 79.8583 170.044V165.36ZM63.3492 172.501V170.044H53.9812V172.501H63.3492ZM44.6132 172.501V170.044H35.2452V172.501H44.6132ZM25.8772 172.501V170.044H16.5091V172.501H25.8772Z" fill="#222222"/>
    <path fill-rule="evenodd" clip-rule="evenodd" d="M92.1426 165.36V170.044C92.1426 171.401 93.2427 172.501 94.5997 172.501H99.2837V170.044H94.5997L94.5997 165.36H92.1426ZM92.1426 155.992H94.5997V146.624H92.1426V155.992ZM92.1426 137.256H94.5997V127.888H92.1426V137.256ZM92.1426 118.52H94.5997V109.152H92.1426V118.52ZM92.1426 99.7837H94.5997V95.0997L99.2837 95.0997V92.6426H94.5997C93.2427 92.6426 92.1426 93.7427 92.1426 95.0997V99.7837ZM108.652 92.6426V95.0997H118.02V92.6426H108.652ZM127.388 92.6426V95.0997H136.756V92.6426H127.388ZM146.124 92.6426V95.0997H155.492V92.6426H146.124ZM164.86 92.6426V95.0997H169.544V99.7837H172.001V95.0997C172.001 93.7427 170.901 92.6426 169.544 92.6426H164.86ZM172.001 109.152H169.544V118.52H172.001V109.152ZM172.001 127.888H169.544V137.256H172.001V127.888ZM172.001 146.624H169.544V155.992H172.001V146.624ZM172.001 165.36H169.544V170.044H164.86V172.501H169.544C170.901 172.501 172.001 171.401 172.001 170.044V165.36ZM155.492 172.501V170.044H146.124V172.501H155.492ZM136.756 172.501V170.044H127.388V172.501H136.756ZM118.02 172.501V170.044H108.652V172.501H118.02Z" fill="#222222"/>
</svg>
