<svg xmlns="http://www.w3.org/2000/svg" width="204" height="400" viewBox="0 0 204 400" fill="none">
    <path d="M23.0527 31.403L177.44 23.2158V376.432L23.0527 368.245V31.403Z" stroke="black" stroke-linecap="round" stroke-linejoin="round"/>
    <path d="M23.0527 39.5895L177.44 31.4023" stroke="black" stroke-linecap="round" stroke-linejoin="round"/>
    <path d="M23.0527 360.062L177.44 368.249" stroke="black" stroke-linecap="round" stroke-linejoin="round"/>
    <path d="M177.439 23.2158L203.17 29.0638V370.585L177.439 376.432V23.2158Z" stroke="black" stroke-linecap="round" stroke-linejoin="round"/>
    <path d="M48.7837 361.227L48.7836 38.4199L23.0527 31.4023L23.0527 368.245L48.7837 361.227Z" fill="white" stroke="black" stroke-linecap="round" stroke-linejoin="round"/>
    <rect x="183.291" y="16.1992" width="16.3742" height="366.082" fill="#FDFDFD"/>
    <path d="M191.463 23.2158L191.463 376.432" stroke="#C3C3C3"/>
    <path d="M191.469 376.436L184.452 369.418L198.486 369.418L191.469 376.436Z" fill="#C3C3C3" stroke="#C3C3C3"/>
    <path d="M191.469 23.2158L184.452 30.2332L198.486 30.2332L191.469 23.2158Z" fill="#C3C3C3" stroke="#C3C3C3"/>
    <path d="M9.01758 34.9111L9.01756 364.736" stroke="#C3C3C3"/>
    <path d="M9.01975 368.249L2.00239 361.232L16.0371 361.232L9.01975 368.249Z" fill="#C3C3C3" stroke="#C3C3C3"/>
    <path d="M9.01975 31.4023L2.00239 38.4197L16.0371 38.4197L9.01975 31.4023Z" fill="#C3C3C3" stroke="#C3C3C3"/>
    <path d="M170.422 199.827L28.9006 199.827" stroke="#C3C3C3"/>
    <path d="M25.3867 199.827L32.4041 192.81L32.4041 206.845L25.3867 199.827Z" fill="#C3C3C3" stroke="#C3C3C3"/>
    <path d="M175.098 199.827L168.08 192.81L168.08 206.845L175.098 199.827Z" fill="#C3C3C3" stroke="#C3C3C3"/>
    <path d="M44.1016 121.463L28.8973 121.463" stroke="black"/>
    <path d="M24.2441 121.463L31.2615 114.446L31.2615 128.48L24.2441 121.463Z" fill="black" stroke="black"/>
    <path d="M47.6348 121.463L40.6174 114.446L40.6174 128.48L47.6348 121.463Z" fill="black" stroke="black"/>
    <path d="M176.152 391.685L25.0379 383.532" stroke="#C3C3C3"/>
    <path d="M23.4386 383.448L30.8213 376.819L30.0653 390.833L23.4386 383.448Z" fill="#C3C3C3" stroke="#C3C3C3"/>
    <path d="M177.761 391.773L171.131 384.388L170.375 398.402L177.761 391.773Z" fill="#C3C3C3" stroke="#C3C3C3"/>
    <path d="M176.152 8.09668L25.0379 16.2488" stroke="#C3C3C3"/>
    <path d="M23.4405 16.3344L30.8233 22.9637L30.0672 8.94926L23.4405 16.3344Z" fill="#C3C3C3" stroke="#C3C3C3"/>
    <path d="M177.759 8.0072L171.129 15.3925L170.373 1.37806L177.759 8.0072Z" fill="#C3C3C3" stroke="#C3C3C3"/>
    <rect width="14.0347" height="23.3913" transform="translate(28.9199 91.0586)" fill="#FDFDFD"/>
    <path d="M35.779 109.416C35.215 109.416 34.669 109.362 34.141 109.254C33.613 109.134 33.115 108.966 32.647 108.75C32.191 108.522 31.789 108.246 31.441 107.922L32.035 106.626C32.611 107.094 33.199 107.436 33.799 107.652C34.399 107.868 35.041 107.976 35.725 107.976C36.313 107.976 36.811 107.892 37.219 107.724C37.627 107.544 37.933 107.286 38.137 106.95C38.353 106.602 38.461 106.188 38.461 105.708C38.461 104.988 38.227 104.448 37.759 104.088C37.291 103.716 36.607 103.53 35.707 103.53H33.799V102.126H35.563C36.091 102.126 36.541 102.036 36.913 101.856C37.285 101.664 37.573 101.4 37.777 101.064C37.993 100.728 38.101 100.32 38.101 99.8399C38.101 99.1919 37.891 98.6999 37.471 98.3639C37.051 98.0159 36.445 97.8419 35.653 97.8419C35.005 97.8419 34.399 97.9619 33.835 98.2019C33.283 98.4299 32.755 98.7839 32.251 99.2639L31.657 97.9859C32.137 97.4819 32.743 97.0919 33.475 96.8159C34.219 96.5399 34.987 96.4019 35.779 96.4019C36.607 96.4019 37.315 96.5339 37.903 96.7979C38.503 97.0619 38.959 97.4399 39.271 97.9319C39.583 98.4119 39.739 98.9939 39.739 99.6779C39.739 100.458 39.523 101.13 39.091 101.694C38.671 102.246 38.089 102.612 37.345 102.792V102.594C37.933 102.702 38.431 102.9 38.839 103.188C39.259 103.476 39.577 103.842 39.793 104.286C40.009 104.73 40.117 105.24 40.117 105.816C40.117 106.548 39.937 107.19 39.577 107.742C39.229 108.282 38.731 108.696 38.083 108.984C37.435 109.272 36.667 109.416 35.779 109.416Z" fill="black"/>
</svg>