<svg xmlns="http://www.w3.org/2000/svg" width="204" height="400" viewBox="0 0 204 400" fill="none">
    <path d="M23.0527 31.403L177.44 23.2158V376.432L23.0527 368.245V31.403Z" stroke="black" stroke-linecap="round" stroke-linejoin="round"/>
    <path d="M23.0527 39.5895L177.44 31.4023" stroke="black" stroke-linecap="round" stroke-linejoin="round"/>
    <path d="M23.0527 360.062L177.44 368.249" stroke="black" stroke-linecap="round" stroke-linejoin="round"/>
    <path d="M177.439 23.2158L203.17 29.0638V370.585L177.439 376.432V23.2158Z" stroke="black" stroke-linecap="round" stroke-linejoin="round"/>
    <path d="M48.7837 361.227L48.7836 38.4199L23.0527 31.4023L23.0527 368.245L48.7837 361.227Z" fill="white" stroke="black" stroke-linecap="round" stroke-linejoin="round"/>
    <rect x="183.291" y="16.1992" width="16.3742" height="366.082" fill="#FDFDFD"/>
    <path d="M191.463 23.2158L191.463 376.432" stroke="black"/>
    <path d="M191.469 376.436L184.452 369.418L198.486 369.418L191.469 376.436Z" fill="black" stroke="black"/>
    <path d="M191.469 23.2158L184.452 30.2332L198.486 30.2332L191.469 23.2158Z" fill="black" stroke="black"/>
    <path d="M9.01758 34.9111L9.01756 364.736" stroke="black"/>
    <path d="M9.01975 368.249L2.00239 361.232L16.0371 361.232L9.01975 368.249Z" fill="black" stroke="black"/>
    <path d="M9.01975 31.4023L2.00239 38.4197L16.0371 38.4197L9.01975 31.4023Z" fill="black" stroke="black"/>
    <path d="M170.422 199.827L28.9006 199.827" stroke="#C3C3C3"/>
    <path d="M25.3867 199.827L32.4041 192.81L32.4041 206.845L25.3867 199.827Z" fill="#C3C3C3" stroke="#C3C3C3"/>
    <path d="M175.098 199.827L168.08 192.81L168.08 206.845L175.098 199.827Z" fill="#C3C3C3" stroke="#C3C3C3"/>
    <path d="M44.1016 121.463L28.8973 121.463" stroke="#C3C3C3"/>
    <path d="M24.2441 121.463L31.2615 114.446L31.2615 128.48L24.2441 121.463Z" fill="#C3C3C3" stroke="#C3C3C3"/>
    <path d="M47.6348 121.463L40.6174 114.446L40.6174 128.48L47.6348 121.463Z" fill="#C3C3C3" stroke="#C3C3C3"/>
    <path d="M176.152 391.685L25.0379 383.532" stroke="#C3C3C3"/>
    <path d="M23.4386 383.448L30.8213 376.819L30.0653 390.833L23.4386 383.448Z" fill="#C3C3C3" stroke="#C3C3C3"/>
    <path d="M177.761 391.773L171.131 384.388L170.375 398.402L177.761 391.773Z" fill="#C3C3C3" stroke="#C3C3C3"/>
    <path d="M176.152 8.09668L25.0379 16.2488" stroke="#C3C3C3"/>
    <path d="M23.4405 16.3344L30.8233 22.9637L30.0672 8.94926L23.4405 16.3344Z" fill="#C3C3C3" stroke="#C3C3C3"/>
    <path d="M177.759 8.0072L171.129 15.3925L170.373 1.37806L177.759 8.0072Z" fill="#C3C3C3" stroke="#C3C3C3"/>
    <rect width="14.0347" height="23.3913" transform="translate(184.457 188.133)" fill="#FDFDFD"/>
    <path d="M187.644 206.328V205.086L191.946 200.46C192.342 200.028 192.66 199.626 192.9 199.254C193.152 198.87 193.338 198.498 193.458 198.138C193.578 197.778 193.638 197.418 193.638 197.058C193.638 196.362 193.422 195.834 192.99 195.474C192.57 195.102 191.952 194.916 191.136 194.916C190.512 194.916 189.918 195.036 189.354 195.276C188.802 195.504 188.28 195.858 187.788 196.338L187.176 195.06C187.656 194.58 188.262 194.196 188.994 193.908C189.726 193.62 190.494 193.476 191.298 193.476C192.162 193.476 192.888 193.614 193.476 193.89C194.076 194.154 194.532 194.544 194.844 195.06C195.156 195.564 195.312 196.182 195.312 196.914C195.312 197.298 195.264 197.676 195.168 198.048C195.072 198.408 194.928 198.774 194.736 199.146C194.556 199.506 194.322 199.878 194.034 200.262C193.758 200.646 193.428 201.042 193.044 201.45L189.318 205.392V204.906H195.816V206.328H187.644Z" fill="black"/>
    <rect width="14.0347" height="23.3913" transform="translate(2 188.133)" fill="#FDFDFD"/>
    <path d="M5.18709 206.328V205.086L9.48909 200.46C9.88509 200.028 10.2031 199.626 10.4431 199.254C10.6951 198.87 10.8811 198.498 11.0011 198.138C11.1211 197.778 11.1811 197.418 11.1811 197.058C11.1811 196.362 10.9651 195.834 10.5331 195.474C10.1131 195.102 9.49509 194.916 8.67909 194.916C8.05509 194.916 7.46109 195.036 6.89709 195.276C6.34509 195.504 5.82309 195.858 5.33109 196.338L4.71909 195.06C5.19909 194.58 5.80509 194.196 6.53709 193.908C7.26909 193.62 8.03709 193.476 8.84109 193.476C9.70509 193.476 10.4311 193.614 11.0191 193.89C11.6191 194.154 12.0751 194.544 12.3871 195.06C12.6991 195.564 12.8551 196.182 12.8551 196.914C12.8551 197.298 12.8071 197.676 12.7111 198.048C12.6151 198.408 12.4711 198.774 12.2791 199.146C12.0991 199.506 11.8651 199.878 11.5771 200.262C11.3011 200.646 10.9711 201.042 10.5871 201.45L6.86109 205.392V204.906H13.3591V206.328H5.18709Z" fill="black"/>
</svg>